# 3ds Max Wavefront OBJ Exporter v0.97b - (c)2007 guruware
# File Created: 27.04.2016 12:06:58

#
# object Part_04
#

v  3.0465 3.8081 -0.0000
v  3.8081 3.8081 1.5232
v  11.4242 3.8081 1.5232
v  12.1858 3.8081 -0.0000
v  3.8081 3.0464 1.5232
v  11.4242 3.0464 1.5232
v  5.3313 3.0464 3.0464
v  9.9010 3.0464 3.0464
v  5.3313 2.2848 3.0464
v  9.9010 2.2848 3.0464
v  6.0929 2.2848 4.5697
v  9.1393 2.2848 4.5697
v  0.0000 10.6626 -0.0000
v  0.0000 10.6626 1.5232
v  2.2848 10.6626 1.5232
v  1.5232 10.6626 -0.0000
v  0.0000 0.0000 -0.0000
v  0.0000 0.0000 1.5232
v  2.2848 3.8081 1.5232
v  1.5232 4.5697 -0.0000
v  0.0000 10.6626 3.0464
v  3.8081 10.6626 3.0464
v  0.0000 0.0000 3.0464
v  3.8081 3.0464 3.0464
v  0.0000 10.6626 4.5697
v  4.5697 10.6626 4.5697
v  0.0000 0.0000 4.5697
v  4.5697 2.2848 4.5697
v  15.2322 10.6626 3.0464
v  15.2322 10.6626 1.5232
v  12.9474 10.6626 1.5232
v  11.4242 10.6626 3.0464
v  15.2322 0.0000 3.0464
v  15.2322 0.0000 1.5232
v  12.9474 3.8081 1.5232
v  11.4242 3.0464 3.0464
v  15.2322 10.6626 4.5697
v  10.6626 10.6626 4.5697
v  15.2322 0.0000 4.5697
v  10.6626 2.2848 4.5697
v  15.2322 10.6626 -0.0000
v  13.7090 10.6626 -0.0000
v  15.2322 0.0000 -0.0000
v  13.7090 4.5697 -0.0000
v  2.2848 4.5697 -0.0000
v  3.0464 3.8081 1.5232
v  3.0464 4.5697 -0.0000
v  4.5697 3.0464 3.0464
v  5.3313 2.2848 4.5697
v  12.9474 4.5697 -0.0000
v  12.1858 3.8081 1.5232
v  12.1858 4.5697 -0.0000
v  10.6626 3.0464 3.0464
v  9.9010 2.2848 4.5697
# 54 vertices

vn 0.0000 1.0000 -0.0000
vn 0.0000 0.0000 1.0000
vn -1.0000 0.0000 -0.0000
vn 0.8944 -0.0000 -0.4472
vn 0.8112 -0.0000 -0.5847
vn 0.7870 -0.0000 -0.6169
vn 0.8330 -0.0000 -0.5532
vn 1.0000 0.0000 -0.0000
vn -0.8112 -0.0000 -0.5847
vn -0.7870 -0.0000 -0.6169
vn -0.8330 -0.0000 -0.5532
vn -0.8944 -0.0000 -0.4472
vn -0.8944 0.0000 -0.4472
vn 0.0000 0.8944 0.4472
vn -0.0000 0.8944 0.4472
vn -0.7071 0.0000 -0.7071
vn 0.8944 0.0000 -0.4472
vn 0.7071 0.0000 -0.7071
# 18 vertex normals

vt -0.4139 0.9570 0.1954
vt -0.2616 0.6523 0.1954
vt 1.2616 0.6523 0.1954
vt 1.4139 0.9570 0.1954
vt -0.2616 0.1954 0.6523
vt -0.2616 0.0430 0.6523
vt 1.2616 0.0430 0.6523
vt 1.2616 0.1954 0.6523
vt -0.2616 0.6523 0.0430
vt 0.0430 0.3477 0.0430
vt 0.9570 0.3477 0.0430
vt 1.2616 0.6523 0.0430
vt 0.0430 0.0430 0.3477
vt 0.0430 -0.1093 0.3477
vt 0.9570 -0.1093 0.3477
vt 0.9570 0.0430 0.3477
vt 0.0430 0.3477 -0.1093
vt 0.1954 0.0430 -0.1093
vt 0.8046 0.0430 -0.1093
vt 0.9570 0.3477 -0.1093
vt -1.0232 0.9570 1.5663
vt -1.0232 0.6523 1.5663
vt -0.5663 0.6523 1.5663
vt -0.7186 0.9570 1.5663
vt 0.0430 1.5663 -1.0232
vt 0.0430 -0.5663 -1.0232
vt 0.3477 -0.5663 -1.0232
vt 0.3477 1.5663 -1.0232
vt 0.9570 1.5663 -0.7186
vt 0.6523 1.5663 -0.5663
vt 0.6523 0.1954 -0.5663
vt 0.9570 0.3477 -0.7186
vt -1.0232 0.3477 1.5663
vt -0.2616 0.3477 1.5663
vt 0.6523 -0.5663 -1.0232
vt 0.6523 1.5663 -1.0232
vt 0.3477 1.5663 -0.2616
vt 0.3477 0.0430 -0.2616
vt -1.0232 0.0430 1.5663
vt -0.1093 0.0430 1.5663
vt 0.9570 -0.5663 -1.0232
vt 0.9570 1.5663 -1.0232
vt 0.0430 1.5663 -0.1093
vt 0.0430 -0.1093 -0.1093
vt 2.0232 0.3477 1.5663
vt 2.0232 0.6523 1.5663
vt 1.5663 0.6523 1.5663
vt 1.2616 0.3477 1.5663
vt 0.3477 1.5663 2.0232
vt 0.3477 -0.5663 2.0232
vt 0.6523 -0.5663 2.0232
vt 0.6523 1.5663 2.0232
vt -0.2616 1.5663 0.3477
vt -0.5663 1.5663 0.6523
vt -0.5663 0.1954 0.6523
vt -0.2616 0.0430 0.3477
vt 2.0232 0.0430 1.5663
vt 1.1093 0.0430 1.5663
vt 0.0430 1.5663 2.0232
vt 0.0430 -0.5663 2.0232
vt 0.9570 1.5663 1.1093
vt 0.6523 1.5663 1.2616
vt 0.6523 0.0430 1.2616
vt 0.9570 -0.1093 1.1093
vt 2.0232 0.9570 1.5663
vt 1.7186 0.9570 1.5663
vt 0.9570 -0.5663 2.0232
vt 0.9570 1.5663 2.0232
vt 0.3477 1.5663 1.5663
vt 0.0430 1.5663 1.7186
vt 0.0430 0.3477 1.7186
vt 0.3477 0.1954 1.5663
vt -0.5663 0.9570 0.3477
vt -0.4139 0.6523 0.1954
vt -0.4139 0.9570 0.3477
vt -0.7186 0.9570 0.3477
vt -0.5663 0.6523 0.1954
vt -0.1093 0.3477 0.0430
vt 0.0430 0.0430 -0.1093
vt -0.2616 0.3477 0.0430
vt -0.1093 0.0430 -0.1093
vt 1.5663 0.9570 0.3477
vt 1.4139 0.6523 0.1954
vt 1.5663 0.6523 0.1954
vt 1.7186 0.9570 0.3477
vt 1.4139 0.9570 0.3477
vt 1.1093 0.3477 0.0430
vt 1.2616 0.3477 0.0430
vt 0.9570 0.0430 -0.1093
vt 1.1093 0.0430 -0.1093
vt 0.6523 0.0430 0.9570
vt 0.6523 -0.1093 0.9570
vt 0.9570 -0.1093 0.8046
vt 0.0430 0.1954 1.4139
vt 0.3477 0.1954 1.2616
vt 0.0430 0.3477 1.4139
vt 0.9570 0.1954 -0.4139
vt 0.9570 0.3477 -0.4139
vt 0.6523 0.1954 -0.2616
vt 0.6523 0.0430 -0.2616
vt 0.3477 0.0430 0.0430
vt 0.3477 -0.1093 0.0430
vt 0.0430 -0.1093 0.1954
vt 1.4139 0.3477 0.9570
vt -0.4139 0.3477 0.9570
vt -0.4139 0.1954 0.9570
vt 1.4139 0.1954 0.9570
# 107 texture coords

g Part_04
s 1
f 1/1/1 2/2/1 3/3/1 4/4/1 
s 2
f 2/5/2 5/6/2 6/7/2 3/8/2 
s 1
f 5/9/1 7/10/1 8/11/1 6/12/1 
s 2
f 7/13/2 9/14/2 10/15/2 8/16/2 
s 1
f 9/17/1 11/18/1 12/19/1 10/20/1 
f 13/21/1 14/22/1 15/23/1 16/24/1 
s 2
f 13/25/3 17/26/3 18/27/3 14/28/3 
f 16/29/4 15/30/5 19/31/6 20/32/4 
s 1
f 14/22/1 21/33/1 22/34/1 15/23/1 
s 2
f 14/28/3 18/27/3 23/35/3 21/36/3 
f 15/30/5 22/37/5 24/38/7 19/31/6 
s 1
f 21/33/1 25/39/1 26/40/1 22/34/1 
s 2
f 21/36/3 23/35/3 27/41/3 25/42/3 
f 22/37/5 26/43/4 28/44/4 24/38/7 
s 1
f 29/45/1 30/46/1 31/47/1 32/48/1 
s 2
f 29/49/8 33/50/8 34/51/8 30/52/8 
f 32/53/9 31/54/9 35/55/10 36/56/11 
s 1
f 37/57/1 29/45/1 32/48/1 38/58/1 
s 2
f 37/59/8 39/60/8 33/50/8 29/49/8 
f 38/61/12 32/62/9 36/63/11 40/64/13 
s 1
f 30/46/1 41/65/1 42/66/1 31/47/1 
s 2
f 30/52/8 34/51/8 43/67/8 41/68/8 
f 31/69/9 42/70/13 44/71/12 35/72/10 
s 4
f 45/73/14 46/74/14 2/2/14 47/75/14 
f 20/76/14 19/77/14 46/74/14 45/73/14 
f 46/74/14 48/78/14 7/10/14 2/2/14 
f 48/78/14 49/79/14 11/18/14 7/10/14 
f 19/77/14 24/80/14 48/78/14 46/74/14 
f 24/80/14 28/81/14 49/79/14 48/78/14 
f 50/82/14 51/83/14 35/84/14 44/85/14 
f 52/86/14 3/3/15 51/83/14 50/82/14 
f 51/83/14 53/87/15 36/88/14 35/84/14 
f 3/3/15 8/11/15 53/87/15 51/83/14 
f 53/87/15 54/89/15 40/90/14 36/88/14 
f 8/11/15 12/19/15 54/89/15 53/87/15 
s 8
f 8/91/13 10/92/13 12/93/13 
s 16
f 3/5/16 6/6/16 8/13/16 
s 8
f 4/94/13 3/95/13 52/96/13 
f 1/97/17 47/98/17 2/99/17 
s 16
f 5/100/18 2/99/18 7/101/18 
s 8
f 9/102/17 7/101/17 11/103/17 
s off
f 52/104/2 47/105/2 1/106/2 4/107/2 
# 36 polygons - 6 triangles

