g Mesh1
# Vertex Positions: 156
v 16 -1 -16
v 16 -1 -4
v 16 0 -4
v 16 0 -16
v 4.000004 -1 -16
v 4.000004 0 -16
v -3.999998 -1 -16
v -3.999998 0 -16
v -15.99999 0 -16
v -15.99999 -1 -16
v 16 -1 4
v 16 -1 16
v 16 0 16
v 16 0 4
v 4.000001 -1 16
v 4.000001 0 16
v -3.999999 -1 16
v -15.99999 -1 16
v -15.99999 0 16
v -3.999999 0 16
v -16 -1 -4
v -16 -1 4
v -16 0 4
v -16 0 -4
v -24 -1 -4
v -24 -1 4
v -24 0 4
v -24 0 -4
v -32 -1 3.999998
v -31.60846 -1 1.527864
v -31.60846 0 1.527864
v -32 0 3.999998
v -30.47214 -1 -0.7022829
v -30.47214 0 -0.7022829
v -28.70228 -1 -2.472137
v -28.70228 0 -2.472137
v -26.47214 -1 -3.608456
v -26.47214 0 -3.608456
v -24 -1 32
v -26.47214 -1 31.60846
v -26.47214 0 31.60846
v -24 0 32
v -28.70228 -1 30.47214
v -28.70228 0 30.47214
v -30.47214 -1 28.70228
v -30.47214 0 28.70228
v -31.60846 -1 26.47214
v -31.60846 0 26.47214
v -32 -1 24
v -32 0 24
v -24 0 24
v -24 -1 24
v -3.999867 -1 32.00002
v -24.00013 -1 32
v -24.00013 0 32
v -3.999867 0 32.00002
v -3.99987 -1 23.99996
v -3.99987 0 23.99996
v -24.00012 0 23.99995
v -24.00012 -1 23.99995
v -3.999999 -1 23.99995
v -3.999999 0 23.99995
v 4 -1 32
v -4 -1 32.00001
v -4 0 32.00001
v 4 0 32
v 24 -1 -4
v 24 -1 3.999999
v 24 0 -4
v 24 0 3.999999
v -4 -1 -24.00001
v -4 0 -24.00001
v 3.999999 -1 -24
v 3.999999 0 -24
v -4.000001 -1 -32
v 3.999998 -1 -32
v 3.999998 0 -32
v -4.000001 0 -32
v 24 -1 -32
v 26.47214 -1 -31.60846
v 26.47214 0 -31.60846
v 24 0 -32
v 28.70228 -1 -30.47214
v 28.70228 0 -30.47214
v 30.47214 -1 -28.70228
v 30.47214 0 -28.70228
v 31.60846 -1 -26.47214
v 31.60846 0 -26.47214
v 32 -1 -24
v 32 0 -24
v 24 0 -24
v 24 -1 -24
v 24.00013 -1 -23.99998
v 3.999875 -1 -24
v 3.999875 0 -24
v 24.00013 0 -23.99998
v 24.00013 -1 -32.00005
v 24.00013 0 -32.00005
v 3.999878 0 -32.00005
v 3.999878 -1 -32.00005
v 32.00003 -1 -24.00014
v 32.00002 -1 -3.999888
v 32.00002 0 -3.999888
v 32.00003 0 -24.00014
v 23.99997 -1 -24.00014
v 23.99997 0 -24.00014
v 23.99997 0 -3.99989
v 23.99997 -1 -3.99989
v 32 -1 -3.999999
v 31.60846 -1 -1.527864
v 31.60846 0 -1.527864
v 32 0 -3.999999
v 30.47214 -1 0.7022824
v 30.47214 0 0.7022824
v 28.70228 -1 2.472137
v 28.70228 0 2.472137
v 26.47214 -1 3.608455
v 26.47214 0 3.608455
v -15.99997 -1 -32.00005
v -3.999876 -1 -32.00005
v -3.999876 0 -32.00005
v -15.99997 0 -32.00005
v -3.999873 -1 -23.99998
v -24.00013 -1 -24
v -24.00013 0 -24
v -3.999873 0 -23.99998
v -24.00013 -1 -32.00005
v -24.00013 0 -32.00005
v -24.00003 -1 -31.99989
v -24.00002 -1 -52.00014
v -24.00002 0 -52.00014
v -24.00003 0 -31.99989
v -15.99997 -1 -31.9999
v -15.99997 0 -31.9999
v -15.99997 0 -52.00014
v -15.99997 -1 -52.00014
v 12 -1 32
v 12 0 32
v 20 -1 32
v 20 0 32
v 20 0 24
v 20 -1 24
v 3.999998 -1 24
v 3.999998 0 24
v 20 -1 48
v 12 -1 48
v 12 0 48
v 20 0 48
v -23.99997 -1 3.999858
v -23.99998 -1 24.00011
v -23.99998 0 24.00011
v -23.99997 0 3.999858
v -32.00003 -1 3.999862
v -32.00003 0 3.999862
v -32.00003 0 24.00011
v -32.00003 -1 24.00011
# Vertex UVs: 122
vt 7.573516 -5.975764E-06
vt 2.963241 2.987883E-06
vt 2.963243 0.4999986
vt 7.573517 0.4999896
vt -1.500002 3.073368E-08
vt -7.500001 -2.011657E-07
vt -7.5 0.4999997
vt -1.500002 0.4999999
vt 2.499999 1.853333E-07
vt 2.5 0.5000001
vt 8.499994 0.5000003
vt 8.499994 4.172325E-07
vt -0.1102763 8.963649E-06
vt -4.720553 1.79273E-05
vt -4.720551 0.5000135
vt -0.1102746 0.5000046
vt 6.500305 8.289039E-06
vt 1.500152 4.14452E-06
vt 1.500153 0.500004
vt 6.500306 0.5000082
vt -1.833282 1.381507E-06
vt -6.83343 -2.763009E-06
vt -6.83343 0.4999971
vt -1.833282 0.5000013
vt 8.500003 -7.499999
vt -7.499991 -7.499996
vt -7.499994 8.500002
vt 8.5 8.499999
vt -7.999999 -8
vt -8.000002 8.000003
vt 7.999993 7.999998
vt 7.999996 -8.000004
vt 2.579051 3.734855E-06
vt -0.4944658 9.710622E-06
vt -0.4944639 0.500005
vt 2.579053 0.499999
vt 0.4999997 -1.000001
vt -3.500001 -1.000002
vt -3.5 3
vt 0.5000005 3.000001
vt 8 -2
vt 8 2
vt 12 2
vt 12 -2
vt 0.5000005 1.266599E-07
vt 0.5000006 0.5000001
vt 4.500001 0.5000002
vt 4.500001 2.682209E-07
vt -0.1665642 2.763015E-06
vt -3.499998 3.751666E-12
vt -3.499997 0.5
vt -0.1665637 0.5000027
vt -0.9471556 -3.654539E-07
vt -0.548952 4.732664E-07
vt -0.5489513 0.4999986
vt -0.9471549 0.4999978
vt -0.6366629 2.557398E-06
vt -0.2499643 2.436271E-06
vt -0.2499639 0.5000001
vt -0.6366627 0.5000004
vt -0.2977279 2.298865E-06
vt 0.07853814 1.727035E-06
vt 0.07853789 0.5000002
vt -0.2977281 0.5000008
vt 0.04347259 1.334715E-06
vt 0.4243359 2.04061E-06
vt 0.4243352 0.5000004
vt 0.04347202 0.4999999
vt 0.4184304 1.472337E-06
vt 0.8151199 -8.207107E-08
vt 0.8151189 0.4999992
vt 0.4184288 0.5000005
vt 16 1.999999
vt 15.80423 0.7639321
vt 15.23607 -0.3511415
vt 14.35114 -1.236069
vt 13.23607 -1.804228
vt 2.000002 -1
vt -0.4721403 -0.6084558
vt 2.000005 6.999996
vt -2.702281 0.5278633
vt 1.999992 7
vt -4.472141 2.297717
vt -5.608467 4.527864
vt -6.000009 7.000004
vt 6.613091 -2.432756E-06
vt -1.070795 1.083119E-05
vt -1.070795 0.5000062
vt 6.613091 0.4999928
vt -6.250063 -7.450581E-09
vt -6.250065 0.4999997
vt 3.750061 0.4999998
vt 3.750063 5.960464E-08
vt 2.50001 -6.250069
vt -1.500023 -6.250066
vt -1.500025 3.750062
vt 2.500002 3.750062
vt 5.999997 -7.250068
vt 5.999998 2.750062
vt 10.00004 2.750061
vt 10.00004 -7.250064
vt -0.1665892 4.118451E-06
vt -3.50001 2.445167E-06
vt -0.166582 0.5000023
vt 4.500002 -1.000001
vt 4.500004 3.000004
vt 4 -2
vt 3.999999 2
vt 3.166868 5.791752E-06
vt 3.166871 0.5000055
vt 8.500004 -1
vt 8.500004 3.000002
vt 1.788144E-07 -2
vt -1.132488E-06 1.999999
vt -0.2500161 3.278236E-08
vt -0.2500176 0.4999998
vt -1.833301 1.381498E-06
vt -1.8333 0.5000015
vt -1.000001 1.527369E-07
vt -1 0.5000001
vt 3 0.5000004
vt 2.999999 5.066395E-07
# Vertex Normals: 38
vn 1 0 0
vn 0 0 -1
vn 0 0 1
vn -1 0 0
vn 0 -1 0
vn 0 1 0
vn -0.9999998 0 0.0006455811
vn -0.9512559 0 -0.308403
vn -0.951057 0 -0.3090153
vn -0.809018 0 -0.5877837
vn -0.5877838 0 -0.8090183
vn -0.309018 0 -0.9510562
vn -0.309713 0 -0.9508301
vn -0.0007320468 0 -0.9999998
vn 0.0006457003 0 0.9999998
vn -0.3084028 0 0.9512559
vn -0.3090152 0 0.951057
vn -0.5877836 0 0.8090181
vn -0.8090183 0 0.5877839
vn -0.9510562 0 0.3090182
vn -0.95083 0 0.3097132
vn -0.9999998 0 0.0007321661
vn -0.0006454618 0 -0.9999998
vn 0.3084031 0 -0.9512558
vn 0.3090154 0 -0.9510569
vn 0.5877838 0 -0.809018
vn 0.8090184 0 -0.5877836
vn 0.9510563 0 -0.3090179
vn 0.9508302 0 -0.3097129
vn 0.9999998 0 -0.0007319276
vn 0.9999998 0 -0.0006454924
vn 0.9512559 0 0.308403
vn 0.951057 0 0.3090154
vn 0.809018 0 0.5877838
vn 0.5877837 0 0.8090184
vn 0.309018 0 0.9510562
vn 0.3097129 0 0.9508301
vn 0.0007319582 0 0.9999998
# Faces: 124
f 4/4/1 3/3/1 2/2/1 1/1/1 
f 6/8/2 4/7/2 1/6/2 5/5/2 
f 10/12/2 9/11/2 8/10/2 7/9/2 
f 14/16/1 13/15/1 12/14/1 11/13/1 
f 13/20/3 16/19/3 15/18/3 12/17/3 
f 20/24/3 19/23/3 18/22/3 17/21/3 
f 18/12/4 19/11/4 9/7/4 10/6/4 
f 12/28/5 18/27/5 10/26/5 1/25/5 
f 9/32/6 19/31/6 13/30/6 4/29/6 
f 24/36/1 23/35/1 22/34/1 21/33/1 
f 22/40/5 26/39/5 25/38/5 21/37/5 
f 28/44/6 27/43/6 23/42/6 24/41/6 
f 25/48/2 28/47/2 24/46/2 21/45/2 
f 23/52/3 27/51/3 26/50/3 22/49/3 
f 32/56/7 31/55/8 30/54/8 29/53/7 
f 31/60/9 34/59/10 33/58/10 30/57/9 
f 34/64/10 36/63/11 35/62/11 33/61/10 
f 36/68/11 38/67/12 37/66/12 35/65/11 
f 38/72/13 28/71/14 25/70/14 37/69/13 
f 27/43/6 31/74/6 32/73/6 
f 27/43/6 34/75/6 31/74/6 
f 27/43/6 36/76/6 34/75/6 
f 27/43/6 38/77/6 36/76/6 
f 27/43/6 28/44/6 38/77/6 
f 26/80/5 37/79/5 25/78/5 
f 26/82/5 35/81/5 37/79/5 
f 26/80/5 33/83/5 35/81/5 
f 26/82/5 30/84/5 33/83/5 
f 26/82/5 29/85/5 30/84/5 
f 42/56/15 41/55/16 40/54/16 39/53/15 
f 41/60/17 44/59/18 43/58/18 40/57/17 
f 44/64/18 46/63/19 45/62/19 43/61/18 
f 46/68/19 48/67/20 47/66/20 45/65/19 
f 48/72/21 50/71/22 49/70/22 47/69/21 
f 51/43/6 41/74/6 42/73/6 
f 51/43/6 44/75/6 41/74/6 
f 51/43/6 46/76/6 44/75/6 
f 51/43/6 48/77/6 46/76/6 
f 51/43/6 50/44/6 48/77/6 
f 52/80/5 47/79/5 49/78/5 
f 52/82/5 45/81/5 47/79/5 
f 52/80/5 43/83/5 45/81/5 
f 52/82/5 40/84/5 43/83/5 
f 52/82/5 39/85/5 40/84/5 
f 56/89/3 55/88/3 54/87/3 53/86/3 
f 60/93/2 59/92/2 58/91/2 57/90/2 
f 54/97/5 60/96/5 57/95/5 53/94/5 
f 58/101/6 59/100/6 55/99/6 56/98/6 
f 62/104/4 20/51/4 17/103/4 61/102/4 
f 66/36/3 65/35/3 64/34/3 63/33/3 
f 64/106/5 17/39/5 15/38/5 63/105/5 
f 16/44/6 20/43/6 65/108/6 66/107/6 
f 15/48/1 16/47/1 66/51/1 63/50/1 
f 68/106/5 11/40/5 2/37/5 67/105/5 
f 3/41/6 14/42/6 70/108/6 69/107/6 
f 2/45/2 3/46/2 69/51/2 67/50/2 
f 70/110/3 14/52/3 11/49/3 68/109/3 
f 7/45/4 8/46/4 72/51/4 71/103/4 
f 74/110/1 6/52/1 5/49/1 73/109/1 
f 78/36/2 77/35/2 76/34/2 75/33/2 
f 76/112/5 5/40/5 7/37/5 75/111/5 
f 8/41/6 6/42/6 77/114/6 78/113/6 
f 82/56/23 81/55/24 80/54/24 79/53/23 
f 81/60/25 84/59/26 83/58/26 80/57/25 
f 84/64/26 86/63/27 85/62/27 83/61/26 
f 86/68/27 88/67/28 87/66/28 85/65/27 
f 88/72/29 90/71/30 89/70/30 87/69/29 
f 91/43/6 81/74/6 82/73/6 
f 91/43/6 84/75/6 81/74/6 
f 91/43/6 86/76/6 84/75/6 
f 91/43/6 88/77/6 86/76/6 
f 91/43/6 90/44/6 88/77/6 
f 92/80/5 87/79/5 89/78/5 
f 92/82/5 85/81/5 87/79/5 
f 92/80/5 83/83/5 85/81/5 
f 92/82/5 80/84/5 83/83/5 
f 92/82/5 79/85/5 80/84/5 
f 96/89/3 95/88/3 94/87/3 93/86/3 
f 100/93/2 99/92/2 98/91/2 97/90/2 
f 94/97/5 100/96/5 97/95/5 93/94/5 
f 98/101/6 99/100/6 95/99/6 96/98/6 
f 104/89/1 103/88/1 102/87/1 101/86/1 
f 108/93/4 107/92/4 106/91/4 105/90/4 
f 102/97/5 108/96/5 105/95/5 101/94/5 
f 106/101/6 107/100/6 103/99/6 104/98/6 
f 112/56/31 111/55/32 110/54/32 109/53/31 
f 111/60/33 114/59/34 113/58/34 110/57/33 
f 114/64/34 116/63/35 115/62/35 113/61/34 
f 116/68/35 118/67/36 117/66/36 115/65/35 
f 118/72/37 70/71/38 68/70/38 117/69/37 
f 69/43/6 111/74/6 112/73/6 
f 69/43/6 114/75/6 111/74/6 
f 69/43/6 116/76/6 114/75/6 
f 69/43/6 118/77/6 116/76/6 
f 69/43/6 70/44/6 118/77/6 
f 67/80/5 117/79/5 68/78/5 
f 67/82/5 115/81/5 117/79/5 
f 67/80/5 113/83/5 115/81/5 
f 67/82/5 110/84/5 113/83/5 
f 67/82/5 109/85/5 110/84/5 
f 122/116/2 121/91/2 120/90/2 119/115/2 
f 126/89/3 125/88/3 124/87/3 123/86/3 
f 124/97/5 127/96/5 120/95/5 123/94/5 
f 121/101/6 128/100/6 125/99/6 126/98/6 
f 125/19/4 128/118/4 127/117/4 124/18/4 
f 132/89/4 131/88/4 130/87/4 129/86/4 
f 136/93/1 135/92/1 134/91/1 133/90/1 
f 130/97/5 136/96/5 133/95/5 129/94/5 
f 134/101/6 135/100/6 131/99/6 132/98/6 
f 131/19/2 135/118/2 136/117/2 130/18/2 
f 138/46/3 66/51/3 63/50/3 137/45/3 
f 142/122/1 141/121/1 140/120/1 139/119/1 
f 143/106/5 142/39/5 139/38/5 63/105/5 
f 140/44/6 141/43/6 144/108/6 66/107/6 
f 144/110/2 141/51/2 142/50/2 143/109/2 
f 148/36/3 147/35/3 146/34/3 145/33/3 
f 146/106/5 137/39/5 139/38/5 145/105/5 
f 140/44/6 138/43/6 147/108/6 148/107/6 
f 139/48/1 140/47/1 148/51/1 145/50/1 
f 147/110/4 138/51/4 137/50/4 146/109/4 
f 152/89/1 151/88/1 150/87/1 149/86/1 
f 156/93/4 155/92/4 154/91/4 153/90/4 
f 150/97/5 156/96/5 153/95/5 149/94/5 
f 154/101/6 155/100/6 151/99/6 152/98/6 


